Coordinates
version=1
nRows=14
nColumns=28
inDegrees=yes

Units are S.I. units (second, meters, Newtons, ...)
Angles are in degrees.

endheader
time	pelvis_tilt	pelvis_list	pelvis_rotation	pelvis_tx	pelvis_ty	pelvis_tz	hip_flexion_r	hip_adduction_r	hip_rotation_r	knee_angle_r	ankle_angle_r	subtalar_angle_r	mtp_angle_r	hip_flexion_l	hip_adduction_l	hip_rotation_l	knee_angle_l	socket_flexion	socket_adduction	socket_rotation	socket_tx	socket_ty	socket_tz	foot_flex	lumbar_extension	lumbar_bending	lumbar_rotation
      0.31250000	      1.36163795	     -3.36264790	     -6.93723168	     -0.34511136	      1.01615069	      0.31140835	     18.97192789	      2.51642619	     -2.34870497	    -67.05268420	      2.02707211	    -13.10152251	     21.95083046	      5.44669864	      0.68342230	     19.75820304	     -5.17299185	      6.32393679	      1.64143446	    -12.89590920	      0.04584316	     -0.01693421	      0.00590707	     -0.91232592	    -13.09617524	      0.71537840	      8.81636208
      0.31666667	      1.46417577	     -3.53481737	     -6.74541394	     -0.33966975	      1.01663858	      0.31119851	     19.27437441	      2.69996573	     -2.57534562	    -66.54285894	      2.71559709	    -12.60857205	     21.89772758	      4.80310200	      0.47063758	     19.71835406	     -5.01577972	      6.19199573	      1.65408979	    -12.54542237	      0.04466582	     -0.01729186	      0.00538815	     -0.72890472	    -13.15862146	      0.93770444	      8.43795093
      0.32083333	      1.53021356	     -3.51527799	     -6.64219177	     -0.33517950	      1.01692859	      0.31109674	     19.79549509	      2.73918161	     -2.62879745	    -66.15384974	      2.76841749	    -12.59809787	     21.89367552	      4.56670760	      0.50920523	     19.68425573	     -5.04635029	      6.22877792	      1.72518503	    -12.50120936	      0.04570384	     -0.01709545	      0.00499945	     -0.67930154	    -13.33178822	      0.91164148	      8.42695246
      0.32500000	      1.57025769	     -3.61456497	     -6.48917333	     -0.32967118	      1.01730935	      0.31095609	     20.15443594	      2.83119435	     -2.86566384	    -65.56801152	      3.21657703	    -12.42853216	     21.86520885	      3.97236874	      0.36872718	     19.63269770	     -4.88517858	      6.09194760	      1.72978189	    -12.20080088	      0.04434102	     -0.01732298	      0.00458595	     -0.41716609	    -13.29127838	      1.04067695	      8.19586630
      0.32916667	      1.62980900	     -3.59573914	     -6.37454832	     -0.32526779	      1.01752511	      0.31089188	     20.66548702	      2.88569891	     -2.89850400	    -65.12307299	      3.28368749	    -12.41244767	     21.86221149	      3.74619742	      0.40348250	     19.60689636	     -4.91442792	      6.12495795	      1.78805858	    -12.15147030	      0.04532353	     -0.01717223	      0.00422910	     -0.38923794	    -13.47997330	      1.00616545	      8.17467932
      0.33333333	      1.87685660	     -3.88722831	     -6.12343426	     -0.31976635	      1.01830039	      0.31070935	     20.64755362	      3.19271909	     -3.13799050	    -64.27498522	      4.02465929	    -11.91706375	     21.71845896	      2.95714963	      0.03665051	     19.53682064	     -4.75067024	      5.99310739	      1.83291548	    -11.75870981	      0.04439226	     -0.01748503	      0.00343038	     -0.27979864	    -13.70692960	      1.36520346	      7.60386868
      0.33750000	      1.92627501	     -3.85740435	     -6.03931091	     -0.31542874	      1.01839408	      0.31068034	     21.17210584	      3.21337900	     -3.20322870	    -63.80097749	      4.07202464	    -11.91821087	     21.70723985	      2.72732862	      0.07230664	     19.51350600	     -4.76885604	      6.01658613	      1.89245420	    -11.70113609	      0.04525474	     -0.01740869	      0.00301778	     -0.21715453	    -13.89836044	      1.32533290	      7.59871137
      0.34166667	      1.92542351	     -3.84540332	     -5.85523122	     -0.31013681	      1.01876319	      0.31066557	     21.50659117	      3.25129672	     -3.31605316	    -62.98880346	      4.24850991	    -11.92607844	     21.66921412	      2.31449908	      0.06296132	     19.53399865	     -4.67864646	      5.94157651	      1.90576431	    -11.46706159	      0.04473415	     -0.01717817	      0.00278101	      0.04190540	    -13.80056659	      1.25064924	      7.53434043
      0.34583333	      1.93861724	     -3.88396877	     -5.71031907	     -0.30503635	      1.01899410	      0.31053946	     21.87581108	      3.29927242	     -3.48579580	    -62.24808509	      4.47398709	    -11.93710125	     21.62632332	      1.88141058	      0.04274252	     19.50348358	     -4.58605959	      5.85290671	      1.86785904	    -11.27142319	      0.04413983	     -0.01721386	      0.00292955	      0.19287789	    -13.80488791	      1.30510906	      7.42758614
      0.35000000	      2.05706847	     -4.06346334	     -5.52960186	     -0.29985037	      1.01927354	      0.31016152	     22.09906287	      3.43193645	     -3.77673257	    -61.49176320	      4.85202312	    -11.90567954	     21.48292537	      1.23118798	     -0.10741812	     19.44851307	     -4.43846894	      5.70839133	      1.76907853	    -10.96552823	      0.04287390	     -0.01762539	      0.00317416	      0.31538240	    -13.95625592	      1.60624946	      7.12609073
      0.35416667	      2.11590083	     -4.03130200	     -5.39537889	     -0.29524314	      1.01951142	      0.31025279	     22.43405229	      3.46542053	     -3.82926977	    -60.68826902	      4.95539770	    -11.89988325	     21.43235448	      0.97214961	     -0.10661053	     19.41926715	     -4.44915561	      5.72927174	      1.85519898	    -10.89663985	      0.04370229	     -0.01734824	      0.00254459	      0.39219643	    -14.07093041	      1.50370180	      7.05946619
      0.35833333	      2.21944483	     -4.18088437	     -5.19165489	     -0.29002294	      1.01981787	      0.30990320	     22.61474013	      3.57250968	     -4.11927837	    -59.80560145	      5.24630823	    -11.95987199	     21.23709636	      0.33155038	     -0.20926992	     19.39912342	     -4.29944874	      5.58101207	      1.74214840	    -10.56790360	      0.04239697	     -0.01761452	      0.00311384	      0.57749635	    -14.18717607	      1.74944608	      6.80170450
      0.36250000	      2.26885556	     -4.13639996	     -5.06112148	     -0.28542216	      1.02000191	      0.30998740	     22.92645242	      3.58475530	     -4.18104763	    -58.93186278	      5.35127024	    -11.97992127	     21.17492616	      0.07761043	     -0.20190105	     19.35812098	     -4.30982288	      5.60060185	      1.82294130	    -10.51246713	      0.04313878	     -0.01734336	      0.00243115	      0.64420062	    -14.29184107	      1.64166196	      6.73713194
      0.36666667	      2.28368594	     -4.12422658	     -4.90958696	     -0.28057245	      1.02013950	      0.30993762	     23.22089339	      3.60643604	     -4.29518660	    -57.99511752	      5.50599222	    -12.04828419	     21.09658934	     -0.26896602	     -0.18682442	     19.35401321	     -4.25939827	      5.55434830	      1.81610523	    -10.35003238	      0.04304857	     -0.01721508	      0.00238141	      0.78499239	    -14.32335588	      1.60968479	      6.65138925
